<svg width="1398" height="1398" viewBox="0 0 1398 1398" fill="none" xmlns="http://www.w3.org/2000/svg">
<rect width="1398" height="1398" rx="699" fill="white"/>
<path d="M538.352 1018.55C503.024 1018.55 474.384 1047.19 474.384 1082.52C474.384 1117.85 503.024 1146.49 538.352 1146.49C573.68 1146.49 602.32 1117.85 602.32 1082.52C602.32 1047.19 573.68 1018.55 538.352 1018.55ZM986.096 1018.55C950.768 1018.55 922.128 1047.19 922.128 1082.52C922.128 1117.85 950.768 1146.49 986.096 1146.49C1021.42 1146.49 1050.06 1117.85 1050.06 1082.52C1050.06 1047.19 1021.42 1018.55 986.096 1018.55ZM1049.55 986.584H530.064C483.984 986.584 443.472 950.136 437.84 903.576L383.6 521.72L352.72 343.256C350.8 327.672 336.592 314.968 322.736 314.968H282C264.336 314.968 250 300.632 250 283C250 265.336 264.336 251 282 251H322.736C369.392 251 410.352 287.448 416.016 334.008L446.8 511.8L501.264 895.288C503.056 910.136 516.496 922.648 530.032 922.648H1049.52C1067.22 922.648 1081.52 936.952 1081.52 954.616C1081.52 972.28 1067.22 986.584 1049.55 986.584ZM570.032 858.648C553.424 858.648 539.408 845.848 538.16 829.016C536.848 811.384 550.096 796.088 567.664 794.808L1001.52 762.84C1017.46 762.744 1030.86 750.232 1032.62 736.024L1082.99 447.8C1084.27 437.048 1081.3 425.272 1074.86 418.008C1070.74 413.336 1065.55 410.968 1059.5 410.968H505.84C488.176 410.968 473.84 396.632 473.84 379C473.84 361.336 488.176 347.032 505.84 347.032H1059.57C1084.02 347.032 1106.45 357.176 1122.8 375.64C1141.49 396.728 1150.06 426.424 1146.32 457.208L1095.92 745.464C1090.48 790.296 1050 826.744 1003.92 826.744L572.4 858.552C571.6 858.616 570.8 858.648 570.032 858.648Z" fill="#FF003F"/>
</svg>
