<svg width="1075" height="945" viewBox="0 0 1075 945" fill="none" xmlns="http://www.w3.org/2000/svg">
<path d="M988.07 87.7321C931.785 31.4468 857.269 0.683629 777.741 0.683629C698.212 0.683629 623.469 31.6747 567.184 87.96L537.788 117.356L507.936 87.5042C451.651 31.219 376.68 0 297.151 0C217.85 0 143.107 30.9911 87.0497 87.0485C30.7644 143.334 -0.226628 218.077 0.00124778 297.606C0.00124778 377.134 31.2202 451.649 87.5055 507.935L515.456 935.885C521.381 941.81 529.356 945 537.104 945C544.852 945 552.827 942.038 558.752 936.113L987.614 508.846C1043.9 452.561 1074.89 377.818 1074.89 298.289C1075.12 218.761 1044.36 144.017 988.07 87.7321ZM944.318 465.322L537.104 870.94L130.802 464.638C86.1382 419.975 61.5277 360.727 61.5277 297.606C61.5277 234.484 85.9103 175.236 130.574 130.801C175.01 86.3649 234.257 61.7543 297.151 61.7543C360.273 61.7543 419.748 86.3648 464.412 131.028L515.912 182.528C527.989 194.606 547.358 194.606 559.436 182.528L610.48 131.484C655.144 86.8206 714.619 62.21 777.513 62.21C840.406 62.21 899.654 86.8206 944.318 131.256C988.981 175.92 1013.36 235.168 1013.36 298.289C1013.59 361.411 988.981 420.658 944.318 465.322Z" fill="#FF003F"/>
</svg>
