<svg width="1398" height="1398" viewBox="0 0 1398 1398" fill="none" xmlns="http://www.w3.org/2000/svg">
<path d="M1398 699C1398 312.953 1085.05 0 699 0C312.953 0 0 312.953 0 699C0 1085.05 312.953 1398 699 1398C1085.05 1398 1398 1085.05 1398 699Z" fill="white"/>
<path d="M1150.07 359.732C1093.78 303.447 1019.27 272.684 939.741 272.684C860.212 272.684 785.469 303.675 729.184 359.96L699.788 389.356L669.936 359.504C613.651 303.219 538.68 272 459.151 272C379.85 272 305.107 302.991 249.05 359.048C192.764 415.334 161.773 490.077 162.001 569.606C162.001 649.134 193.22 723.649 249.505 779.935L677.456 1207.89C683.381 1213.81 691.356 1217 699.104 1217C706.852 1217 714.827 1214.04 720.752 1208.11L1149.61 780.846C1205.9 724.561 1236.89 649.818 1236.89 570.289C1237.12 490.761 1206.36 416.017 1150.07 359.732ZM1106.32 737.322L699.104 1142.94L292.802 736.638C248.138 691.975 223.528 632.727 223.528 569.606C223.528 506.484 247.91 447.236 292.574 402.801C337.01 358.365 396.257 333.754 459.151 333.754C522.273 333.754 581.748 358.365 626.412 403.028L677.912 454.528C689.989 466.606 709.358 466.606 721.436 454.528L772.48 403.484C817.144 358.821 876.619 334.21 939.513 334.21C1002.41 334.21 1061.65 358.821 1106.32 403.256C1150.98 447.92 1175.36 507.168 1175.36 570.289C1175.59 633.411 1150.98 692.658 1106.32 737.322Z" fill="#FF003F"/>
</svg>
